<?xml version="1.0" encoding="UTF-8" standalone="no" ?>
<!DOCTYPE svg PUBLIC "-//W3C//DTD SVG 1.1//EN" "http://www.w3.org/Graphics/SVG/1.1/DTD/svg11.dtd">
<svg xmlns="http://www.w3.org/2000/svg" xmlns:xlink="http://www.w3.org/1999/xlink" version="1.1" width="1080" height="1080" viewBox="-90 -90 1260 1260" xml:space="preserve">
<desc>Created with Fabric.js 5.2.4</desc>
<defs>
</defs>
<g transform="matrix(1 0 0 1 540 540)" id="8cb5827a-8e5b-4689-9b09-d2ad78dee9ba"  >
<rect style="stroke: none; stroke-width: 1; stroke-dasharray: none; stroke-linecap: butt; stroke-dashoffset: 0; stroke-linejoin: miter; stroke-miterlimit: 4; fill: rgb(255,255,255); fill-rule: nonzero; opacity: 1; visibility: hidden;" vector-effect="non-scaling-stroke"  x="-540" y="-540" rx="0" ry="0" width="1080" height="1080" />
</g>
<g transform="matrix(1 0 0 1 540 540)" id="a2b00451-50e2-4778-b4f5-2966922d0edc"  >
</g>
<g transform="matrix(3.6 0 0 3.6 540 540)"  >
<g style=""   >
		<g transform="matrix(0.13 0 0 -0.13 -137.78 -17.93)"  >
<path style="stroke: none; stroke-width: 1; stroke-dasharray: none; stroke-linecap: butt; stroke-dashoffset: 0; stroke-linejoin: miter; stroke-miterlimit: 4; fill: rgb(231,236,239); fill-rule: nonzero; opacity: 1;" vector-effect="non-scaling-stroke"  transform=" translate(-466.62, -1634.46)" d="M 315 2389 C 234 2299 204 2178 213 1975 C 232 1571 384 1192 635 923 C 723 828 753 812 683 898 C 493 1131 366 1432 324 1754 C 303 1909 310 2158 339 2315 C 350 2375 358 2426 356 2427 C 354 2429 336 2412 315 2389 z" stroke-linecap="round" />
</g>
		<g transform="matrix(0.13 0 0 -0.13 137.79 -18.45)"  >
<path style="stroke: none; stroke-width: 1; stroke-dasharray: none; stroke-linecap: butt; stroke-dashoffset: 0; stroke-linejoin: miter; stroke-miterlimit: 4; fill: rgb(231,236,239); fill-rule: nonzero; opacity: 1;" vector-effect="non-scaling-stroke"  transform=" translate(-2533.42, -1638.38)" d="M 2644 2405 C 2707 2103 2703 1799 2635 1535 C 2574 1303 2460 1073 2317 898 C 2247 812 2277 828 2365 923 C 2616 1192 2767 1569 2787 1975 C 2797 2182 2761 2318 2675 2400 L 2638 2435 L 2644 2405 z" stroke-linecap="round" />
</g>
		<g transform="matrix(0.13 0 0 -0.13 -55.61 -102.65)"  >
<path style="stroke: none; stroke-width: 1; stroke-dasharray: none; stroke-linecap: butt; stroke-dashoffset: 0; stroke-linejoin: miter; stroke-miterlimit: 4; fill: rgb(231,236,239); fill-rule: nonzero; opacity: 1;" vector-effect="non-scaling-stroke"  transform=" translate(-1082.96, -2269.9)" d="M 1033 2355 C 983 2320 983 2220 1033 2185 C 1066 2162 1123 2166 1148 2193 C 1170 2216 1178 2250 1162 2250 C 1157 2250 1144 2237 1132 2220 C 1106 2185 1082 2182 1049 2209 C 1031 2223 1025 2238 1025 2268 C 1025 2343 1087 2375 1134 2325 C 1161 2296 1170 2294 1170 2315 C 1170 2362 1080 2388 1033 2355 z" stroke-linecap="round" />
</g>
		<g transform="matrix(0.13 0 0 -0.13 -34 -102.67)"  >
<path style="stroke: none; stroke-width: 1; stroke-dasharray: none; stroke-linecap: butt; stroke-dashoffset: 0; stroke-linejoin: miter; stroke-miterlimit: 4; fill: rgb(231,236,239); fill-rule: nonzero; opacity: 1;" vector-effect="non-scaling-stroke"  transform=" translate(-1245, -2270)" d="M 1230 2270 C 1230 2188 1233 2170 1245 2170 C 1257 2170 1260 2188 1260 2270 C 1260 2352 1257 2370 1245 2370 C 1233 2370 1230 2352 1230 2270 z" stroke-linecap="round" />
</g>
		<g transform="matrix(0.13 0 0 -0.13 -13.64 -102.68)"  >
<path style="stroke: none; stroke-width: 1; stroke-dasharray: none; stroke-linecap: butt; stroke-dashoffset: 0; stroke-linejoin: miter; stroke-miterlimit: 4; fill: rgb(231,236,239); fill-rule: nonzero; opacity: 1;" vector-effect="non-scaling-stroke"  transform=" translate(-1397.71, -2270.08)" d="M 1337 2352 C 1304 2315 1324 2283 1392 2261 C 1440 2245 1457 2225 1440 2205 C 1421 2182 1382 2187 1356 2215 C 1328 2245 1310 2247 1317 2220 C 1330 2171 1422 2152 1460 2190 C 1500 2230 1480 2264 1398 2290 C 1354 2304 1344 2316 1360 2335 C 1378 2356 1418 2353 1432 2330 C 1447 2307 1470 2303 1470 2323 C 1470 2367 1369 2388 1337 2352 z" stroke-linecap="round" />
</g>
		<g transform="matrix(0.13 0 0 -0.13 14.97 -102.68)"  >
<path style="stroke: none; stroke-width: 1; stroke-dasharray: none; stroke-linecap: butt; stroke-dashoffset: 0; stroke-linejoin: miter; stroke-miterlimit: 4; fill: rgb(231,236,239); fill-rule: nonzero; opacity: 1;" vector-effect="non-scaling-stroke"  transform=" translate(-1612.24, -2270.13)" d="M 1549 2344 C 1530 2324 1525 2308 1525 2268 C 1525 2226 1529 2215 1553 2194 C 1593 2160 1651 2161 1679 2196 C 1704 2227 1706 2250 1685 2250 C 1677 2250 1670 2244 1670 2237 C 1670 2218 1637 2190 1616 2190 C 1589 2190 1550 2236 1550 2268 C 1550 2306 1585 2350 1615 2350 C 1639 2350 1670 2327 1670 2309 C 1670 2304 1677 2300 1685 2300 C 1706 2300 1704 2326 1680 2350 C 1649 2381 1581 2377 1549 2344 z" stroke-linecap="round" />
</g>
		<g transform="matrix(0.13 0 0 -0.13 45.9 -102.64)"  >
<path style="stroke: none; stroke-width: 1; stroke-dasharray: none; stroke-linecap: butt; stroke-dashoffset: 0; stroke-linejoin: miter; stroke-miterlimit: 4; fill: rgb(231,236,239); fill-rule: nonzero; opacity: 1;" vector-effect="non-scaling-stroke"  transform=" translate(-1844.25, -2269.79)" d="M 1775 2345 C 1739 2310 1740 2233 1776 2196 C 1835 2138 1940 2182 1940 2265 C 1940 2334 1907 2369 1842 2370 C 1810 2370 1793 2364 1775 2345 z M 1889 2324 C 1901 2309 1910 2285 1910 2270 C 1910 2255 1901 2231 1889 2216 C 1847 2163 1780 2196 1780 2270 C 1780 2344 1847 2377 1889 2324 z" stroke-linecap="round" />
</g>
		<g transform="matrix(0.13 0 0 -0.13 -94.6 -67.72)"  >
<path style="stroke: none; stroke-width: 1; stroke-dasharray: none; stroke-linecap: butt; stroke-dashoffset: 0; stroke-linejoin: miter; stroke-miterlimit: 4; fill: rgb(231,236,239); fill-rule: nonzero; opacity: 1;" vector-effect="non-scaling-stroke"  transform=" translate(-790.47, -2007.89)" d="M 735 2088 C 703 2060 692 2003 710 1959 C 737 1895 841 1886 869 1946 C 883 1978 883 1980 867 1980 C 859 1980 848 1969 842 1955 C 826 1921 768 1919 746 1952 C 722 1986 726 2037 755 2065 C 786 2097 805 2096 836 2065 C 850 2051 865 2040 870 2040 C 887 2040 881 2060 855 2085 C 823 2118 771 2118 735 2088 z" stroke-linecap="round" />
</g>
		<g transform="matrix(0.13 0 0 -0.13 -66.67 -67.33)"  >
<path style="stroke: none; stroke-width: 1; stroke-dasharray: none; stroke-linecap: butt; stroke-dashoffset: 0; stroke-linejoin: miter; stroke-miterlimit: 4; fill: rgb(231,236,239); fill-rule: nonzero; opacity: 1;" vector-effect="non-scaling-stroke"  transform=" translate(-1000, -2005)" d="M 940 2005 L 940 1910 L 1000 1910 C 1071 1910 1081 1928 1013 1932 C 967 1935 965 1936 965 1965 C 965 1993 968 1995 1008 1998 C 1031 2000 1050 2005 1050 2010 C 1050 2015 1031 2020 1008 2022 C 969 2025 965 2028 962 2053 C 959 2079 960 2080 1009 2080 C 1037 2080 1060 2085 1060 2090 C 1060 2096 1033 2100 1000 2100 L 940 2100 L 940 2005 z" stroke-linecap="round" />
</g>
		<g transform="matrix(0.13 0 0 -0.13 -40.67 -67.33)"  >
<path style="stroke: none; stroke-width: 1; stroke-dasharray: none; stroke-linecap: butt; stroke-dashoffset: 0; stroke-linejoin: miter; stroke-miterlimit: 4; fill: rgb(231,236,239); fill-rule: nonzero; opacity: 1;" vector-effect="non-scaling-stroke"  transform=" translate(-1195, -2005)" d="M 1120 2005 C 1120 1927 1123 1910 1135 1910 C 1146 1910 1150 1921 1150 1950 C 1150 1986 1153 1990 1175 1990 C 1194 1990 1204 1980 1220 1950 C 1231 1928 1247 1910 1255 1910 C 1274 1910 1274 1913 1251 1958 C 1232 1996 1232 1996 1251 2008 C 1261 2015 1270 2031 1270 2044 C 1270 2085 1245 2100 1179 2100 L 1120 2100 L 1120 2005 z M 1230 2065 C 1251 2039 1234 2020 1190 2020 C 1152 2020 1150 2022 1150 2050 C 1150 2077 1153 2080 1184 2080 C 1202 2080 1223 2073 1230 2065 z" stroke-linecap="round" />
</g>
		<g transform="matrix(0.13 0 0 -0.13 -14.67 -67.33)"  >
<path style="stroke: none; stroke-width: 1; stroke-dasharray: none; stroke-linecap: butt; stroke-dashoffset: 0; stroke-linejoin: miter; stroke-miterlimit: 4; fill: rgb(231,236,239); fill-rule: nonzero; opacity: 1;" vector-effect="non-scaling-stroke"  transform=" translate(-1390, -2005)" d="M 1310 2090 C 1310 2085 1324 2080 1340 2080 L 1370 2080 L 1370 1995 C 1370 1926 1373 1910 1385 1910 C 1397 1910 1400 1926 1400 1995 L 1400 2080 L 1435 2080 C 1454 2080 1470 2085 1470 2090 C 1470 2096 1437 2100 1390 2100 C 1343 2100 1310 2096 1310 2090 z" stroke-linecap="round" />
</g>
		<g transform="matrix(0.13 0 0 -0.13 4 -67.33)"  >
<path style="stroke: none; stroke-width: 1; stroke-dasharray: none; stroke-linecap: butt; stroke-dashoffset: 0; stroke-linejoin: miter; stroke-miterlimit: 4; fill: rgb(231,236,239); fill-rule: nonzero; opacity: 1;" vector-effect="non-scaling-stroke"  transform=" translate(-1530, -2005)" d="M 1520 2005 C 1520 1948 1524 1910 1530 1910 C 1536 1910 1540 1948 1540 2005 C 1540 2062 1536 2100 1530 2100 C 1524 2100 1520 2062 1520 2005 z" stroke-linecap="round" />
</g>
		<g transform="matrix(0.13 0 0 -0.13 22.67 -67.33)"  >
<path style="stroke: none; stroke-width: 1; stroke-dasharray: none; stroke-linecap: butt; stroke-dashoffset: 0; stroke-linejoin: miter; stroke-miterlimit: 4; fill: rgb(231,236,239); fill-rule: nonzero; opacity: 1;" vector-effect="non-scaling-stroke"  transform=" translate(-1670, -2005)" d="M 1610 2005 C 1610 1927 1613 1910 1625 1910 C 1636 1910 1640 1922 1640 1955 L 1640 2000 L 1680 2000 C 1702 2000 1720 2005 1720 2010 C 1720 2016 1702 2020 1680 2020 C 1642 2020 1640 2022 1640 2050 C 1640 2079 1642 2080 1685 2080 C 1710 2080 1730 2085 1730 2090 C 1730 2096 1703 2100 1670 2100 L 1610 2100 L 1610 2005 z" stroke-linecap="round" />
</g>
		<g transform="matrix(0.13 0 0 -0.13 40.67 -67.33)"  >
<path style="stroke: none; stroke-width: 1; stroke-dasharray: none; stroke-linecap: butt; stroke-dashoffset: 0; stroke-linejoin: miter; stroke-miterlimit: 4; fill: rgb(231,236,239); fill-rule: nonzero; opacity: 1;" vector-effect="non-scaling-stroke"  transform=" translate(-1805, -2005)" d="M 1790 2005 C 1790 1927 1793 1910 1805 1910 C 1817 1910 1820 1927 1820 2005 C 1820 2083 1817 2100 1805 2100 C 1793 2100 1790 2083 1790 2005 z" stroke-linecap="round" />
</g>
		<g transform="matrix(0.13 0 0 -0.13 59.33 -67.33)"  >
<path style="stroke: none; stroke-width: 1; stroke-dasharray: none; stroke-linecap: butt; stroke-dashoffset: 0; stroke-linejoin: miter; stroke-miterlimit: 4; fill: rgb(231,236,239); fill-rule: nonzero; opacity: 1;" vector-effect="non-scaling-stroke"  transform=" translate(-1945, -2005)" d="M 1880 2005 L 1880 1910 L 1945 1910 C 1982 1910 2010 1914 2010 1920 C 2010 1926 1988 1930 1960 1930 L 1910 1930 L 1910 1965 C 1910 2000 1910 2000 1955 2000 C 1980 2000 2000 2005 2000 2010 C 2000 2016 1980 2020 1955 2020 C 1912 2020 1910 2021 1910 2050 C 1910 2079 1911 2080 1960 2080 C 1988 2080 2010 2085 2010 2090 C 2010 2096 1982 2100 1945 2100 L 1880 2100 L 1880 2005 z" stroke-linecap="round" />
</g>
		<g transform="matrix(0.13 0 0 -0.13 86.74 -67.33)"  >
<path style="stroke: none; stroke-width: 1; stroke-dasharray: none; stroke-linecap: butt; stroke-dashoffset: 0; stroke-linejoin: miter; stroke-miterlimit: 4; fill: rgb(231,236,239); fill-rule: nonzero; opacity: 1;" vector-effect="non-scaling-stroke"  transform=" translate(-2150.53, -2005)" d="M 2070 2005 L 2070 1910 L 2125 1910 C 2171 1910 2185 1914 2205 1935 C 2238 1967 2240 2035 2209 2074 C 2191 2097 2181 2100 2129 2100 L 2070 2100 L 2070 2005 z M 2178 2064 C 2194 2053 2200 2039 2200 2011 C 2200 1962 2183 1941 2137 1933 L 2100 1927 L 2100 2004 L 2100 2080 L 2128 2080 C 2143 2080 2166 2073 2178 2064 z" stroke-linecap="round" />
</g>
		<g transform="matrix(0.13 0 0 -0.13 -140.17 28.3)"  >
<path style="stroke: none; stroke-width: 1; stroke-dasharray: none; stroke-linecap: butt; stroke-dashoffset: 0; stroke-linejoin: miter; stroke-miterlimit: 4; fill: rgb(231,236,239); fill-rule: nonzero; opacity: 1;" vector-effect="non-scaling-stroke"  transform=" translate(-448.74, -1287.79)" d="M 98 1970 C 64 1919 47 1863 42 1780 C 35 1644 89 1451 196 1239 C 303 1025 477 823 659 701 C 754 638 849 586 856 592 C 858 594 825 621 783 651 C 681 723 527 876 452 978 C 262 1237 151 1548 122 1905 C 115 1994 114 1995 98 1970 z" stroke-linecap="round" />
</g>
		<g transform="matrix(0.13 0 0 -0.13 140.19 28.58)"  >
<path style="stroke: none; stroke-width: 1; stroke-dasharray: none; stroke-linecap: butt; stroke-dashoffset: 0; stroke-linejoin: miter; stroke-miterlimit: 4; fill: rgb(231,236,239); fill-rule: nonzero; opacity: 1;" vector-effect="non-scaling-stroke"  transform=" translate(-2551.45, -1285.68)" d="M 2876 1895 C 2853 1558 2737 1235 2548 978 C 2473 876 2319 723 2217 651 C 2175 621 2142 594 2144 592 C 2151 586 2246 638 2341 701 C 2621 889 2844 1221 2936 1590 C 2969 1718 2966 1833 2930 1917 C 2892 2006 2884 2002 2876 1895 z" stroke-linecap="round" />
</g>
		<g transform="matrix(0.13 0 0 -0.13 -95 9.94)"  >
<path style="stroke: none; stroke-width: 1; stroke-dasharray: none; stroke-linecap: butt; stroke-dashoffset: 0; stroke-linejoin: miter; stroke-miterlimit: 4; fill: rgb(231,236,239); fill-rule: nonzero; opacity: 1;" vector-effect="non-scaling-stroke"  transform=" translate(-787.5, -1425.45)" d="M 727 1650 C 683 1637 632 1593 608 1547 C 590 1513 585 1489 585 1419 C 585 1341 588 1329 615 1285 C 659 1213 713 1188 810 1192 C 869 1194 892 1200 918 1218 C 955 1245 990 1306 990 1345 C 990 1366 985 1370 962 1370 C 937 1370 932 1364 921 1331 C 886 1213 728 1207 669 1321 C 641 1377 644 1494 676 1536 C 747 1632 871 1632 917 1535 C 930 1507 940 1500 962 1500 C 985 1500 990 1504 990 1524 C 990 1561 949 1613 900 1638 C 854 1661 781 1666 727 1650 z" stroke-linecap="round" />
</g>
		<g transform="matrix(0.13 0 0 -0.13 -32.67 10.14)"  >
<path style="stroke: none; stroke-width: 1; stroke-dasharray: none; stroke-linecap: butt; stroke-dashoffset: 0; stroke-linejoin: miter; stroke-miterlimit: 4; fill: rgb(231,236,239); fill-rule: nonzero; opacity: 1;" vector-effect="non-scaling-stroke"  transform=" translate(-1255, -1423.97)" d="M 1175 1642 C 1090 1601 1050 1531 1050 1420 C 1050 1270 1125 1190 1265 1190 C 1335 1190 1371 1203 1407 1242 C 1431 1267 1460 1330 1460 1355 C 1460 1377 1401 1375 1394 1353 C 1367 1264 1327 1235 1246 1243 C 1205 1247 1191 1254 1164 1283 C 1111 1341 1097 1419 1126 1503 C 1155 1588 1233 1627 1315 1599 C 1346 1588 1359 1576 1375 1543 C 1392 1506 1399 1501 1428 1500 C 1466 1500 1467 1509 1439 1566 C 1411 1625 1365 1652 1282 1657 C 1230 1660 1206 1656 1175 1642 z" stroke-linecap="round" />
</g>
		<g transform="matrix(0.13 0 0 -0.13 29.33 10)"  >
<path style="stroke: none; stroke-width: 1; stroke-dasharray: none; stroke-linecap: butt; stroke-dashoffset: 0; stroke-linejoin: miter; stroke-miterlimit: 4; fill: rgb(231,236,239); fill-rule: nonzero; opacity: 1;" vector-effect="non-scaling-stroke"  transform=" translate(-1720, -1425)" d="M 1540 1425 L 1540 1200 L 1565 1200 L 1590 1200 L 1592 1388 L 1595 1575 L 1708 1388 L 1821 1200 L 1861 1200 L 1900 1200 L 1900 1425 L 1900 1650 L 1875 1650 L 1850 1650 L 1850 1469 C 1850 1370 1846 1291 1841 1294 C 1837 1297 1786 1378 1729 1474 L 1625 1649 L 1583 1650 L 1540 1650 L 1540 1425 z" stroke-linecap="round" />
</g>
		<g transform="matrix(0.13 0 0 -0.13 90.53 10)"  >
<path style="stroke: none; stroke-width: 1; stroke-dasharray: none; stroke-linecap: butt; stroke-dashoffset: 0; stroke-linejoin: miter; stroke-miterlimit: 4; fill: rgb(231,236,239); fill-rule: nonzero; opacity: 1;" vector-effect="non-scaling-stroke"  transform=" translate(-2179, -1425)" d="M 2052 1431 C 2001 1311 1960 1209 1960 1206 C 1960 1203 1974 1200 1990 1200 C 2018 1200 2023 1206 2047 1260 L 2073 1320 L 2175 1320 L 2277 1320 L 2303 1260 C 2328 1203 2331 1200 2364 1200 L 2398 1200 L 2308 1425 L 2218 1650 L 2181 1650 L 2144 1650 L 2052 1431 z M 2198 1535 C 2203 1519 2219 1475 2233 1438 L 2259 1370 L 2176 1370 L 2092 1370 L 2133 1474 C 2156 1532 2178 1576 2181 1572 C 2185 1568 2192 1552 2198 1535 z" stroke-linecap="round" />
</g>
</g>
</g>
<g transform="matrix(NaN NaN NaN NaN 0 0)"  >
<g style=""   >
</g>
</g>
<g transform="matrix(NaN NaN NaN NaN 0 0)"  >
<g style=""   >
</g>
</g>
</svg>